<svg xmlns="http://www.w3.org/2000/svg" fill="none" viewBox="0 0 546 179">
    <g clip-path="url(#clip-header-title)">
        <path fill="#fff"
            d="M34.3 58.21A26.851 26.851 0 0114.73 50 27.24 27.24 0 019 41a29.9 29.9 0 01-2-11v-.16a29.1 29.1 0 012.08-11 28.509 28.509 0 015.73-9.07 26.53 26.53 0 0119.65-8.36 32.21 32.21 0 016.66.59c1.908.393 3.766.996 5.54 1.8a29.858 29.858 0 014.78 2.79 44.714 44.714 0 014.35 3.57l-2.9 3A45.66 45.66 0 0049.13 10a24.252 24.252 0 00-4.2-2.55 25.271 25.271 0 00-4.86-1.68 24.43 24.43 0 00-5.69-.63 22.2 22.2 0 00-16.51 7.1A24.56 24.56 0 0013 20a26.22 26.22 0 00-1.76 9.65v.16A25.919 25.919 0 0013 39.5a25 25 0 004.9 7.84 22.71 22.71 0 007.34 5.26 22 22 0 009.18 1.92 23 23 0 0010.35-2.19A33.392 33.392 0 0053.36 46l2.75 2.67a53.661 53.661 0 01-4.51 3.88 27.806 27.806 0 01-4.94 3 27.448 27.448 0 01-5.69 2 29.675 29.675 0 01-6.67.66zm63.46-40.95H102L84.66 58.68c-1.773 4.213-3.72 7.157-5.84 8.83a11.67 11.67 0 01-7.49 2.54 16.888 16.888 0 01-4.08-.44 23.478 23.478 0 01-3.85-1.32l1.34-3.41c.972.493 2 .87 3.06 1.12 1.235.265 2.497.386 3.76.36.99.008 1.973-.15 2.91-.47a7.14 7.14 0 002.53-1.6 14.82 14.82 0 002.27-2.93A36.468 36.468 0 0081.45 57L62.23 17.26h4.47L83.33 53l14.43-35.74zm35.11 40.95a18.05 18.05 0 01-5.48-.79 17.257 17.257 0 01-4.5-2.11 20.347 20.347 0 01-3.6-3.06 28.171 28.171 0 01-2.85-3.61v8.63h-3.85V0h3.85v26.2a27.366 27.366 0 012.9-3.76A19.33 19.33 0 01123 19.3a18.697 18.697 0 014.47-2.16 17.06 17.06 0 015.44-.82c2.432.007 4.84.485 7.09 1.41 2.32.94 4.433 2.327 6.22 4.08a20.324 20.324 0 014.42 6.55 21.643 21.643 0 011.69 8.75v.15A21.648 21.648 0 01150.6 46a20.558 20.558 0 01-4.42 6.59 19.582 19.582 0 01-6.18 4.17 18.46 18.46 0 01-7.13 1.45zm-.35-3.69a16.16 16.16 0 006.16-1.17 14.577 14.577 0 005-3.38A15.662 15.662 0 00147 44.6a19.997 19.997 0 001.22-7.18v-.16a19.454 19.454 0 00-1.22-7.14 16.138 16.138 0 00-3.41-5.45 15.32 15.32 0 00-17.1-3.41 16.495 16.495 0 00-5.22 3.53 17.555 17.555 0 00-3.65 5.41 17.326 17.326 0 00-1.37 7v.16a17.628 17.628 0 001.37 7 16.578 16.578 0 008.87 8.91 15.43 15.43 0 006.03 1.25zm48.71 3.69a19.33 19.33 0 01-7.49-1.49 18.897 18.897 0 01-6.27-4.24 20.008 20.008 0 01-4.28-6.59 22.334 22.334 0 01-1.57-8.55v-.16c-.02-2.77.471-5.52 1.45-8.11a21 21 0 014-6.63 19.003 19.003 0 016-4.48 18.372 18.372 0 0115.11 0 17.116 17.116 0 015.75 4.43 20.163 20.163 0 013.66 6.61 25.583 25.583 0 011.29 8.27v.83a4.832 4.832 0 01-.07.74H165.7c.11 2.3.671 4.556 1.65 6.64a17.176 17.176 0 003.53 4.91 14.413 14.413 0 004.82 3.09 15.61 15.61 0 005.69 1.05 16.23 16.23 0 008-1.8 23.795 23.795 0 005.77-4.47l2.67 2.35a27.92 27.92 0 01-6.95 5.45 19.54 19.54 0 01-9.65 2.15zm13.57-22.83a22.555 22.555 0 00-1.21-5.84 16.346 16.346 0 00-2.75-4.95 13.078 13.078 0 00-4.35-3.45 14.32 14.32 0 00-11.61-.14 13.9 13.9 0 00-4.51 3.26 17.774 17.774 0 00-3.18 4.94 18.515 18.515 0 00-1.49 6.16l29.1.02zm15.38-18.12H214v11.37a22.851 22.851 0 013-4.94 19.907 19.907 0 014.07-3.88 17.379 17.379 0 015-2.43 17.809 17.809 0 015.68-.75v4.24h-.39c-2.26-.008-4.5.43-6.59 1.29a15.79 15.79 0 00-5.53 3.84 18.821 18.821 0 00-3.8 6.27 24.21 24.21 0 00-1.44 8.6v16.4h-3.84l.02-40.01zm44.32 40.79a25 25 0 01-8.78-1.64 27.202 27.202 0 01-7.61-4.24l2.27-3.06a27.484 27.484 0 006.91 3.89 20.66 20.66 0 007.45 1.37 11.27 11.27 0 006.86-2 6.522 6.522 0 002.79-5.56v-.16a5.162 5.162 0 00-.86-3 7.918 7.918 0 00-2.36-2.19 15.386 15.386 0 00-3.37-1.57c-1.26-.41-2.59-.83-4-1.25a249.99 249.99 0 01-4.91-1.49 19.746 19.746 0 01-4.43-2 10.194 10.194 0 01-3.17-3 7.73 7.73 0 01-1.22-4.46v-.16a9.795 9.795 0 011-4.42 10.86 10.86 0 012.71-3.48 12.007 12.007 0 014.15-2.31 16.521 16.521 0 015.34-.83c2.517.022 5.016.43 7.41 1.21a25.002 25.002 0 016.77 3.3l-2 3.21a26.664 26.664 0 00-5.92-2.9 19.527 19.527 0 00-6.4-1.1 10.259 10.259 0 00-6.63 2 6.173 6.173 0 00-2.47 5v.16a4.501 4.501 0 00.94 2.85 8.215 8.215 0 002.47 2.08 19.853 19.853 0 003.56 1.44c1.36.45 2.75.88 4.16 1.3 1.62.467 3.217.973 4.79 1.52a17.804 17.804 0 014.23 2.12 10.555 10.555 0 013 3.09 8.188 8.188 0 011.14 4.46v.16a10.687 10.687 0 01-1.06 4.81 10.932 10.932 0 01-2.94 3.68 13.691 13.691 0 01-4.39 2.35 17.29 17.29 0 01-5.43.82zm42.92.16c-2.574.007-5.124-.5-7.5-1.49a18.897 18.897 0 01-6.27-4.24 20.008 20.008 0 01-4.28-6.59 22.531 22.531 0 01-1.57-8.55v-.16a22.708 22.708 0 011.45-8.11 21 21 0 014-6.63 19.003 19.003 0 016-4.48 18.372 18.372 0 0115.11 0 17.116 17.116 0 015.75 4.43 19.999 19.999 0 013.66 6.61 25.56 25.56 0 011.3 8.27v.83a5.107 5.107 0 01-.08.74h-33.11c.11 2.3.671 4.556 1.65 6.64a17.176 17.176 0 003.53 4.91 14.413 14.413 0 004.82 3.09 15.61 15.61 0 005.69 1.05 16.23 16.23 0 008-1.8 23.617 23.617 0 005.77-4.47L314 50.6a28.004 28.004 0 01-7 5.45 19.57 19.57 0 01-9.58 2.16zM311 35.38a23.004 23.004 0 00-1.22-5.84 16.33 16.33 0 00-2.78-4.95 13.22 13.22 0 00-4.36-3.45 14.319 14.319 0 00-11.58-.14 13.9 13.9 0 00-4.51 3.26 17.774 17.774 0 00-3.18 4.94 18.727 18.727 0 00-1.49 6.16l29.12.02zm32.93 22.83a19.221 19.221 0 01-8-1.69 20.989 20.989 0 01-6.5-4.52 20.46 20.46 0 01-4.27-6.59 20.872 20.872 0 01-1.54-8v-.16a20.872 20.872 0 011.54-8 21.498 21.498 0 014.27-6.67 20.542 20.542 0 016.46-4.58 19.37 19.37 0 018-1.68 20.427 20.427 0 015.14.6c1.486.378 2.922.929 4.28 1.64a21.102 21.102 0 013.57 2.38 35.351 35.351 0 013 2.83l-2.75 2.82a30.242 30.242 0 00-5.66-4.59 14.08 14.08 0 00-7.61-2 15.44 15.44 0 00-6.4 1.33 16 16 0 00-5.1 3.63 17.375 17.375 0 00-3.36 5.43 17.765 17.765 0 00-1.25 6.72v.15A17.728 17.728 0 00329 44a17.367 17.367 0 003.53 5.5 16.09 16.09 0 005.22 3.67 15.52 15.52 0 006.43 1.33 14.901 14.901 0 007.57-1.92 23.19 23.19 0 005.84-4.75l2.67 2.36a28.265 28.265 0 01-6.94 5.72 18.23 18.23 0 01-9.39 2.3zm42.45 0a17.77 17.77 0 01-6.75-1.21 14.082 14.082 0 01-8.2-8.63 20.006 20.006 0 01-1.06-6.63V17.26h3.85V41c0 4.127 1.097 7.433 3.29 9.92s5.33 3.73 9.41 3.73a14 14 0 005.46-1.06 13.725 13.725 0 004.43-2.94 13.254 13.254 0 002.94-4.51 15.227 15.227 0 001.06-5.77V17.26h3.84v40h-3.84v-7.45a18.602 18.602 0 01-5.49 6 15.19 15.19 0 01-8.94 2.4zm32.87-40.95h3.84v11.37a22.763 22.763 0 013-4.94 19.683 19.683 0 014.08-3.88 17.446 17.446 0 015-2.43 17.87 17.87 0 015.69-.75v4.24h-.39c-2.26-.009-4.5.43-6.59 1.29a15.613 15.613 0 00-5.57 3.84 18.68 18.68 0 00-3.81 6.27 24.21 24.21 0 00-1.41 8.59v16.4h-3.84v-40zM450.7 1.57h4.79v5.26h-4.79V1.57zm.47 15.69H455v40h-3.85l.02-40zM483.49 58a15.117 15.117 0 01-4.39-.62 9.512 9.512 0 01-3.57-2 9.358 9.358 0 01-2.39-3.46 12.625 12.625 0 01-.86-4.9V20.79h-5.81v-3.53h5.81V4.47h3.84v12.79h14v3.53h-14v25.75c0 2.873.743 4.873 2.23 6a9.27 9.27 0 005.77 1.72c.967.021 1.933-.066 2.88-.26a17.525 17.525 0 003-1v3.61c-.992.457-2.027.812-3.09 1.06a15 15 0 01-3.42.33zm49.35-40.74h4.23l-17.33 41.42c-1.78 4.18-3.73 7.123-5.85 8.83a11.65 11.65 0 01-7.49 2.54 16.887 16.887 0 01-4.08-.44c-1.315-.33-2.6-.771-3.84-1.32l1.33-3.41c.973.49 2 .866 3.06 1.12 1.235.265 2.497.385 3.76.36.99.008 1.973-.15 2.91-.47a7.047 7.047 0 002.51-1.61 14.828 14.828 0 002.27-2.93 35.076 35.076 0 002.2-4.39l-19.22-39.7h4.47L518.4 53l14.44-35.74z" />
        <path fill="#FFD637"
            d="M240.68 90.51l-42.34-14.72a1.82 1.82 0 00-1.22 0l-42.34 14.72a1.843 1.843 0 00-1.23 1.73v35c0 35.88 43.13 51.29 43.57 51.43.395.14.825.14 1.22 0 .44-.14 43.57-15.55 43.57-51.43v-35a1.84 1.84 0 00-1.23-1.73zm-2.45 36.71c0 31-35.4 45.78-40.5 47.73-5.1-1.95-40.5-16.73-40.5-47.73V93.55l40.5-14.08 40.5 14.08v33.67z" />
        <path fill="#FFD637"
            d="M197.18 84.88l-35 11.05a1.832 1.832 0 00-1.29 1.84v29.45c0 28.57 34.7 41.68 36.17 42.23.41.15.86.15 1.27 0 1.5-.55 36.2-13.66 36.2-42.23V97.77a1.86 1.86 0 00-1.29-1.84l-35-11.05a1.87 1.87 0 00-1.06 0zm33.68 14.23v28.11c0 23.93-28.47 36.61-33.13 38.51-4.66-1.9-33.14-14.58-33.14-38.51V99.11l33.14-10.55 33.13 10.55z" />
        <path fill="#FFD637"
            d="M186.68 112.49v3.68h-5.52a1.838 1.838 0 00-1.84 1.85v22.09a1.84 1.84 0 001.84 1.84h33.14a1.849 1.849 0 001.84-1.84V118c0-.489-.194-.958-.538-1.305a1.855 1.855 0 00-1.302-.545h-5.53v-3.68a11.046 11.046 0 00-18.855-7.81 11.046 11.046 0 00-3.235 7.81v.02zm25.78 25.77H183v-18.4h29.46v18.4zm-7.37-25.77v3.68h-14.72v-3.68c0-1.952.775-3.824 2.156-5.204a7.356 7.356 0 0110.408 0 7.356 7.356 0 012.156 5.204z" />
        <path fill="#FFD637"
            d="M197.73 125.38a1.84 1.84 0 00-1.84 1.84v3.68a1.84 1.84 0 003.68 0v-3.68a1.84 1.84 0 00-1.84-1.84z" />
        <path fill="#fff"
            d="M284.37 100h-19.14v-3.71h42.36V100h-19.14v51.23h-4.08V100zm31.7-4.49h4.78v5.26h-4.78v-5.26zm.47 15.69h3.84v40h-3.84v-40zm18.98 0h3.85v8.94a28.147 28.147 0 012.89-3.76 20.044 20.044 0 013.64-3.14 18.645 18.645 0 014.46-2.16 17.104 17.104 0 015.44-.82c2.432.007 4.84.486 7.09 1.41a19.172 19.172 0 016.22 4.08 20.153 20.153 0 014.42 6.55 21.678 21.678 0 011.69 8.75v.15a21.644 21.644 0 01-1.69 8.75 20.558 20.558 0 01-4.42 6.59 19.404 19.404 0 01-6.22 4.16 18.713 18.713 0 01-12.57.67 17.599 17.599 0 01-4.5-2.12 20.36 20.36 0 01-3.6-3.06 27.562 27.562 0 01-2.85-3.61v21.18h-3.85V111.2zm19.93 37.26c2.11.016 4.203-.382 6.16-1.17a14.667 14.667 0 005-3.38 15.667 15.667 0 003.33-5.37 19.995 19.995 0 001.22-7.18v-.16a19.374 19.374 0 00-1.26-7.13 16.235 16.235 0 00-3.41-5.46 15.264 15.264 0 00-11-4.66c-2.09.001-4.159.426-6.08 1.25a16.49 16.49 0 00-5.22 3.53 17.552 17.552 0 00-3.65 5.41 17.377 17.377 0 00-1.37 7v.15a17.554 17.554 0 001.37 7 16.578 16.578 0 008.87 8.91 15.25 15.25 0 006.04 1.26zm44.79 3.54a24.828 24.828 0 01-8.79-1.64 27.251 27.251 0 01-7.61-4.24l2.28-3.06a27.284 27.284 0 006.9 3.88 20.729 20.729 0 007.46 1.38c2.443.094 4.85-.608 6.86-2a6.504 6.504 0 002.78-5.56v-.15a5.101 5.101 0 00-.86-3 8.012 8.012 0 00-2.35-2.19 15.358 15.358 0 00-3.37-1.57c-1.26-.41-2.59-.83-4-1.25-1.63-.47-3.26-1-4.91-1.49a19.539 19.539 0 01-4.43-2 10.34 10.34 0 01-3.18-3 7.776 7.776 0 01-1.21-4.46v-.16a9.823 9.823 0 011-4.42 10.825 10.825 0 012.7-3.48 12.422 12.422 0 014.16-2.31 16.495 16.495 0 015.34-.82 26.122 26.122 0 0114.19 4.47l-2 3.21a26.723 26.723 0 00-5.93-2.9 19.535 19.535 0 00-6.39-1.1 10.258 10.258 0 00-6.63 2 6.134 6.134 0 00-2.47 5v.16a4.5 4.5 0 00.94 2.85 8.07 8.07 0 002.47 2.08 20.57 20.57 0 003.57 1.53c1.36.44 2.75.87 4.16 1.29 1.62.473 3.213.98 4.78 1.52 1.5.518 2.926 1.23 4.24 2.12a10.556 10.556 0 013 3.09 8.188 8.188 0 011.14 4.46v.16a10.628 10.628 0 01-4 8.49 13.638 13.638 0 01-4.4 2.35 17.225 17.225 0 01-5.44.76zM273 204.76s-.08-.13 0 0zm-6-5.18a23.433 23.433 0 00-19.658 36.185 23.433 23.433 0 0013.188 9.765l-.1-17.32s-.51-.2-.48.84c0 0-.08.25-.53.13 0 0-.18 0-.18.2s-.81 0-.78-.73a.35.35 0 01-.48-.32s0-.27.45-.47c0 0 1.34.12 1.44-.3 0 0 .23-.43-.6-.2h-.56s-.2-.15-.35 0a.667.667 0 01-.538.344.672.672 0 01-.582-.264s-1-.23 0-.62c0 0 .31 0 .21-.33 0 0 .43-.45.68-.42 0 0 .05-.3.45-.2a1.643 1.643 0 011.27-.15s.27-.45-.46-.32c0 0-.35.42-.71.17a.832.832 0 01-1.11.1s-.68.12-.65-.42c0 0-.58.37-.46-.85 0 0-2.25.5-2-.62 0 0 0-1.32 2.25-1.6a.719.719 0 00.53-.32c.42.014.829.134 1.19.35 0 0 .43 0 .7.9.27.9.74 0 .64 0a.864.864 0 01-.41-1s-.91.5-.73-.47a.618.618 0 01-.33-.35s-.08-.67.28-.9c0 0 .12.18.15-.5 0 0 .58-.17.2-.52a.324.324 0 00-.17-.08.332.332 0 00-.38.33s-.91.4-.48-.75c0 0-.61 1-1.14.35h-.25s-1.14.53-.66-.94c0 0-1 1.32-.73-.35a1.901 1.901 0 012.35-.5 1.88 1.88 0 011.29.17 1 1 0 00.7.2s.2-.25-.18-.3c0 0-1.11.1-.65-.72 0 0 .28-.45.18-.7a.85.85 0 01-1-.52s-.2-.32-.43-.25c0 0-.81.2-1.06-.22a.641.641 0 01-.43-.23s-1.34.35-.58-.69c0 0-.35-1.07 1.11-.65 0 0 .35-.27-.23-.52 0 0-.83.72-1.23.4 0 0-.28-.3.65-.85 0 0-1.28-.18-.1-.8a1.56 1.56 0 01.84-.17.735.735 0 01.68.37s.33-.07.33-.17h.35c.15-.093.323-.145.5-.15.28 0 .31-.25.64.27 0 0-.23.4-.86.2 0 0-.48 0 0 .27 0 0 .91.65-.05 1.05 0 0-.1.35.58.35.21.043.412.117.6.22 0 0-.27-.27-.17-.54 0 0-.18-.6.68-.43 0 0 .66.13.4-1 0 0-1.94 0-.33-.87l-.85-.5-.22.05c-.05.07-.38 0-.38 0a1.114 1.114 0 01-.51-.18.468.468 0 01.38-.3h.76s.3-.37.45-.37c0 0 .69-.23.36-.38 0 0-.4 0-.4-.32a.543.543 0 01.63-.28.308.308 0 000-.42s-.28 0-.25-.12a.819.819 0 01-.51-.08s-.43.5-.68.38c0 0-.45 1.34-1.62.77 0 0 0-.1-.2-.2a.428.428 0 010-.43h.15s-.1-.35.66-.3c0 0 .2 0 .17-.47 0 0 0-.38.51-.23 0 0 .25.13.4-.52a1 1 0 011.11-.45 2.003 2.003 0 01-.37-.89s-.31-.58.07-.85a.79.79 0 00.08-.52s-.51 0-.31-.6c0 0 .61-.52.76.25 0 0 .66.55.68 0 0 0 .2-.64-.58-.52 0 0-.45 0-.23-.7 0 0 .18 0 .21-.35 0 0 1-.19.86-.44l.17-.18s.15-.25.26 0c0 0 .2.2.12.3-.08.1.63-.05.61.1a.296.296 0 01.281.011.29.29 0 01.149.239s1.28.12.3.65a.322.322 0 01-.4.37s0 .42-.33.37c0 0-.68.58.1.33l.28-.15s1-.82 1.08-.43c0 0 .28.23-.23.4a4.431 4.431 0 00-.88.68s-.18.39-.5.39c0 0-.76.45-.26.5 0 0 .28.13.23.2h.2a.608.608 0 01.76-.1s.35.29-.2.47c0 0 .05.15-.43.1 0 0-.35.52-.68.1 0 0-.2-.18-.26.2 0 0-.1.4.21.4 0 0 .38.15.25.25s.4.07.43.19c.03.12.71.15.93-.07 0 0 .51-.47.76-.27 0 0 .25.25-.48.54 0 0-.05.2-.58.2a1.534 1.534 0 00-.4.1.874.874 0 00-.18.38s0 .39-.66.1l-.1-.06c-.18.07-.64.27-.33.68l.94.05s.38 0 .3.37c.03.175.012.354-.05.52 0 0 .05.4.3.35 0 0 .71.05.66.28.038.217.143.416.3.57 0 0 .28 1.09-.78.9 0 0-.66 0-.76-1 0 0-.25-.57-.4-.44a.66.66 0 00.07.44s.11.3-.32.1c0 0-.43-.12-.43.05v1.3c.283.034.557.119.81.25 0 0 1 0 .93.54a.312.312 0 00.373.084.312.312 0 00.107-.084.52.52 0 01.417-.081.53.53 0 01.343.251s.43.13.43 0 .38-.34.51.25c0 0-.05.35.1.43 0 0 .15.52-.53.59 0 0 0-.17-.2-.12 0 0-.11-.37-.31-.25a.473.473 0 01-.38.18s-.7.07-.83-.05c-.13-.12-.51-.15-.46-.25.05-.1 0-.08 0-.08s-.4 0-.3.25c0 0-.6.32 0 .27 0 0 .46.2.43.4 0 0 .66.23.56.33-.1.1.63 0 .3 1.14 0 0-.23 1.15-.78.85 0 0-.69.35-1 0 0 0-.28 0-.28.13s.43.32.33.42c-.1.1.43.08.51-.1a.757.757 0 01.53-.3s.6-.22.86.25c0 0 .2.1.22.65 0 0 .46.4 0 .57l-.12.23s.5-.18.58.42c0 0 .43.17.07.72h-.25s-.08.35-.86-.12c0 0-.1-.25-.25-.15a1 1 0 00-.41-.3s-.25-.18-.25.15c0 0 .23.27-.4.3 0 0 .23.29.1.39-.13.1.5.85.88.78a.823.823 0 01.56.82s.43.62.23.84c0 0 .27.3 0 .5 0 0-.05.43-.46 0h-.91c.105.13.189.275.25.43 0 0 .59.25.61.72a.36.36 0 01-.4.32s-.33.43-.51.4c0 0 .38.27.51.2.07-.035.149-.048.226-.035a.369.369 0 01.204.105s.55-.17.6.35c0 0 .51.55-.05.77 0 0-.3 0-.3.15a.525.525 0 01-.46 0s-.37 0-.43-.12c0 0-.5.05-.5-.08s-.25 0-.23-.12c.02-.12-.22 0-.1.22.037 0 .072.013.1.037a.153.153 0 01.05.093s.33-.05.33.1c0 0 .41.07.38.22 0 0 .45 0 .43.13 0 0 .2.05.15.22a.566.566 0 01.3.57s.41.13.36.38c0 0 .1.4-.56.27l-.15-.15h-.2s-.53-.33-.48-.43c.05-.1 0-.07 0-.07s-.58.17-.73-.22l-.12.17.12 17.38a23.46 23.46 0 005.59.7 22.88 22.88 0 004.25-.41v-11.8h-.63a.282.282 0 01-.2.13s.15.18-.15.2c0 0-.2.13-.1.21h-.48a.556.556 0 01-.402.343.557.557 0 01-.508-.143s-.28 0-.05-.43c0 0 .2 0 .05-.39 0 0 .12-.35.33-.41 0 0 .53-.69.93-.69 0 0 .63 0 .63-.18 0 0 .3-.28.43-.23.13.05.3-.28.05-.51h-.63a.526.526 0 01-.286.314.516.516 0 01-.424-.004s-.58-.36.15-.92c0 0 .26.1.11-.41-.15-.51-.14-.14-.14-.14s-.2-.44.4-.69c0 0 .94 0 .66-.16 0 0 .33-.38-.18-.3a.578.578 0 00-.4.07s-.71.13-.73-.07c0 0-.38-.16-.31-.31l-.07-.43a.326.326 0 00.103-.235.326.326 0 00-.103-.235.64.64 0 01-.3-.51s.05-.33.25-.33c0 0 1.06 0 1.06-.2 0 0 .26-.08.23-.59a.796.796 0 00-.15-.62s0-.28.1-.25v-.15h-.15s0 .23-.25.13a.56.56 0 00-.23.3s-.27.06-.25 0c.02-.06 0-.08 0-.08s.07.33-.26.31c0 0-.05.38-.45.1a.288.288 0 00-.38.08l-.23-.1s-.2-.06-.05-.57a.784.784 0 01.33-.33s.05-.46.46-.38a.23.23 0 00.044-.09.211.211 0 00-.045-.189.216.216 0 00-.079-.061s-.23 0-.08-.35l-.05-.57s.15-.35.36-.3l.28-.13a.298.298 0 01.32-.1s0-.23-.05-.28c-.05-.05-.55 0-.45-.34 0 0 .18-.66-.28-.36a.591.591 0 00-.4.13c-.07.06-.09.07-.1.06-.01-.01-.1.14-.31-.08 0 0-.22 0-.15-.21 0 0 0-.38.18-.38 0 0 .2-.23.78-.15l.15-.18s.41-.57.68-.57c0 0 .16-.2.31-.18 0 0 .3-.66.6-.63 0 0 .15-.13-.43-.13h-.45s.07.18-.23.1c0 0 .15.26-.66.11 0 0-.2-.13-.43.2a2.134 2.134 0 01-.35.23s-.25.23-.4-.13V220s.25-.28.22-.36c-.03-.08.53-.07.43-.12-.1-.05.59-.06.69.05l.4-.05s.33 0 .4-.41c0 0 .21-.34.51-.31 0 0 .35-.05.23-.15-.12-.1.1-.18.2-.13.1.05.45-.21.1-.28 0 0-.48.05 0-.46 0 0 .23-.52-.05-.62 0 0-.17-.15-.3.51a.934.934 0 01-1.36.44l-.1-.72s.22 0 .2-.33v-.61a.378.378 0 01.088-.308.385.385 0 01.131-.099.39.39 0 01.161-.033s.33-.36-.2-.33a.682.682 0 01-.76-.05c-.45-.28-.07 0-.07 0s-.46 0-.43-.36l.07-.28a.276.276 0 01.046-.293.28.28 0 01.284-.087s.43-.05.56.13c0 0 .35.13.38.05.03-.08.3-.18.45-.05 0 0-.48-.36 0-.62 0 0 .35-.2-.55-.18 0 0-.21.18-.28-.33 0 0 0-.41.6-.28a.29.29 0 00.232.053.294.294 0 00.198-.133s.1-.2.25-.18c0 0 .13-.38.31-.33a.307.307 0 00.176-.15.307.307 0 00.024-.23.452.452 0 00-.28.1 1.174 1.174 0 01-.53-.38s-.45-.13-.07-.51l.58-.06.1-.12h.1a.42.42 0 00-.3-.51.859.859 0 01-.36-.31l-.33-.1s-.45-.69.16-.54a.444.444 0 01.35.16s.25.1.23.2a.57.57 0 01.25-.12s-.3-.11-.28-.31c0 0 .13-.21.23-.18v-.08l.15.05s.41-.23 0-.38a2.314 2.314 0 00-.43-.18s-.46.21-.43-.33c0 0 .27-.64.45-.74 0 0 .23-.16.36 0l.1-.05a1.375 1.375 0 01-.08-.52s.15-.69.58-.2a.585.585 0 01.33.48c.08.41 0 .08 0 .08s.26.18.23.33c-.03.15.36.29.33.08l.08.28.1.05v.21s.23-.16.18.36c0 0 0 .33.3.33 0 0 .28 0 .23.2 0 0 .25.08-.13.49 0 0-.17.15 0 .28 0 0 1.19.67.21 1.28l-.51.08v.69a.804.804 0 01.8.25c.28.39.08.08.08.08s.25.33.33.31c.08-.02.28.05.25.2 0 0 .61.08.48.33 0 0 .05.31.25.34 0 0 .33 0 .31.2 0 0 .35-.18.4.51 0 0 .15.72-.78.72a.59.59 0 01-.71 0 .747.747 0 01-.36-.58.841.841 0 01-.25-.46s-.38-.52-.73-.26a.83.83 0 00-.45.28l.05.1s.68.08.75.36c0 0 .38.28-.22.41v.15s.33-.1.48.31l.68.13a.709.709 0 01.61.46s.46.25.28.59c0 0-.05.38-.71.07 0 0-.05-.18-.53-.25l-.3-.05s-.26-.29-.51.12c0 0 .13.52.58.46 0 0 .41-.1.41.08 0 0 .83-.18 1 .23a.581.581 0 00.53-.15h.88l.1.21.2.05s.28.36.08.61a.352.352 0 00.28.36s.63.28.2.77c0 0-.48.48-.93-.31l-.13-.05v-.15h-.2a1.202 1.202 0 01-.383.457c-.165.117-.356.19-.557.213a1.613 1.613 0 01-.65-.16h-.28a.735.735 0 01-.43-.57s.12-.51.3-.58l-.3-.13v-.1h-.38a.236.236 0 01-.123.128.244.244 0 01-.088.019.243.243 0 01-.089-.017s0 .2-.36.1c0 0 .16.26 0 .33 0 0 .41.06.31.18a.407.407 0 01.365-.019.403.403 0 01.235.279l-.1.13s.15.51-.3.53c0 0-.13.39-.25.39h.7s.08-.31.94-.13a1.48 1.48 0 01.73-.33.832.832 0 01.45-.16l.11-.1h.5s.3.18.3.43c0 0 .74.67 0 .9 0 0-.35.25-.61-.28h-.27a.662.662 0 01-.38.1s-.05.36-.36.36c0 0 0 .23-.4.18 0 0 .07.28-.33.13 0 0-.05.23-.3.12a.217.217 0 00.033.203.216.216 0 00.187.087.283.283 0 01.213.15.279.279 0 01-.003.26l.88.07a.56.56 0 01.3.23s1.09-.07 1 .51v.59s.76.51.41 1a.446.446 0 01-.373.067.44.44 0 01-.287-.247 1.095 1.095 0 00-.35-.36s-.36-.12-.53-.2c0 0-.15-.1-.13.15 0 0 .3 0 .28.16l.43.07s.33.28.3.44c0 0 .58.74-.15.87 0 0-.2.25-.61-.06h-.35s-.05.18-.28.1c0 0-.1.31-.76.23a.653.653 0 01-.55.36.528.528 0 01-.43.18s.55.15.45.43c0 0 .28 0 .15.26l.11.28v.36s0 .1-.25.15c0 0-.1.36.05.41.15.05 0 0-.1.1s.22.36-.43.08c0 0-.36-.18-.08.51l.13.11s.28-.62.81-.62c0 0 .4-.15.3-.25-.1-.1.43-.26.61.1 0 0 .3 0 .28.15-.02.15.45-.08.4.08 0 0 .35 0 .25-.08-.1-.08.58-.08.53.21-.05.29 0 .07 0 .07.073.01.14.048.187.105a.292.292 0 01.063.205s.74 0 .59.28c0 0 .42.23.25.61 0 0 .25.06.27.44 0 0 .16.38-.4.41h-1.08a.996.996 0 00-.66 0s.43.34.2.57c0 0 .43.15-.55.79a1.336 1.336 0 01-1.19 0s-.46.15-.68-.15a.536.536 0 01-.48-.23s-.33-.18-.38.15h.35a.24.24 0 00.278.151.24.24 0 00.102-.051s.81.36.81.23c0-.13.4.23.3.36-.1.13.46.2.46.38 0 0 .12.28.27.33 0 0 .38.46-.38.69 0 0-.25.23-.68-.23 0 0-.23.16-.28-.1h-.15s-.07.23-.43 0c0 0-.22 0-.22-.13s-.18-.08-.23 0h-.28s-.2.31.1.44c0 0 .25.13.18.2.285-.038.575-.038.86 0h.08s.26.27.47.27c0 0 .46.23 0 .69a.927.927 0 01-.73.18.557.557 0 01-.28-.31s-.28.05-.32-.15c0 .08-.11.22-.42-.22l-.41.05v11.29a23.427 23.427 0 0018.197-25.44 23.435 23.435 0 00-7.663-14.889 23.435 23.435 0 00-15.644-5.971l-.12.12z" />
    </g>
    <defs>
        <clipPath id="clip-header-title">
            <path fill="#fff" d="M0 0h546v179H0z" />
        </clipPath>
    </defs>
</svg>
